<svg xmlns="http://www.w3.org/2000/svg" viewBox="0 0 48 48" width="48" height="48">
  <rect width="48" height="48" rx="10" fill="#FFFFFF"/>
  <g transform="translate(7.68 7.68) scale(0.68)">
  <path fill-rule="evenodd" d="M24 2.6 C25.26 15.04 32.91 17.65 32.91 23.98 A8.91 8.91 0 0 1 15.09 23.98 C15.09 17.65 22.74 15.04 24 2.6 Z M17.18 21.79 A7.62 7.62 0 0 0 27.13 30.79 A12.48 12.48 0 0 1 17.18 21.79 Z" fill="#0A0A0B"/>
  <path d="M2.04 24 L11.93 21 Q11.56 24 11.93 27 Z" fill="#7C3AED"/>
  <path d="M45.96 24 L36.07 21 Q36.44 24 36.07 27 Z" fill="#7C3AED"/>
  <path d="M24 45.96 L21 36.07 Q24 36.44 27 36.07 Z" fill="#7C3AED"/>
  </g>
</svg>
